<svg id="visual" viewBox="0 0 900 900" width="900" height="900" xmlns="http://www.w3.org/2000/svg" xmlns:xlink="http://www.w3.org/1999/xlink" version="1.1"><g transform="translate(452.83846954713397 459.4723871487348)"><path d="M211.8 -287C279 -242.7 341.1 -186.9 368.4 -116.5C395.6 -46.1 388 38.7 364.4 120.6C340.8 202.4 301.2 281.2 237.8 316.9C174.4 352.5 87.2 345 9.8 331.5C-67.6 318 -135.2 298.6 -195.6 261.9C-256 225.3 -309.2 171.5 -346.7 101.8C-384.2 32.1 -406.1 -53.5 -379.9 -120.1C-353.7 -186.8 -279.4 -234.6 -208.1 -277.6C-136.8 -320.6 -68.4 -358.8 2 -361.5C72.3 -364.2 144.6 -331.4 211.8 -287" fill="#ff52ee"></path></g></svg>