<svg id="visual" viewBox="0 0 900 900" width="900" height="900" xmlns="http://www.w3.org/2000/svg" xmlns:xlink="http://www.w3.org/1999/xlink" version="1.1"><g transform="translate(455.5198291139665 491.05057074070857)"><path d="M231.4 -320.4C301 -268 359.3 -201.8 378.4 -126.8C397.5 -51.7 377.6 32.2 346.2 107.4C314.8 182.6 272 249.1 212.4 286C152.8 322.8 76.4 330.2 -1.3 331.9C-79 333.7 -157.9 329.9 -226.6 295.9C-295.2 262 -353.5 197.9 -379.8 122.2C-406.1 46.5 -400.4 -40.9 -374.3 -121.7C-348.2 -202.5 -301.6 -276.8 -235.8 -330.4C-170.1 -384.1 -85 -417 -2.1 -414.2C80.9 -411.4 161.8 -372.7 231.4 -320.4" fill="#ff52ee"></path></g></svg>