<svg id="visual" viewBox="0 0 900 600" width="900" height="600" xmlns="http://www.w3.org/2000/svg" xmlns:xlink="http://www.w3.org/1999/xlink" version="1.1"><rect x="0" y="0" width="900" height="600" fill="#1c0033"></rect><path d="M0 328L21.5 337.8C43 347.7 86 367.3 128.8 375.2C171.7 383 214.3 379 257.2 367.3C300 355.7 343 336.3 385.8 336.2C428.7 336 471.3 355 514.2 370.2C557 385.3 600 396.7 642.8 400.8C685.7 405 728.3 402 771.2 387.7C814 373.3 857 347.7 878.5 334.8L900 322L900 601L878.5 601C857 601 814 601 771.2 601C728.3 601 685.7 601 642.8 601C600 601 557 601 514.2 601C471.3 601 428.7 601 385.8 601C343 601 300 601 257.2 601C214.3 601 171.7 601 128.8 601C86 601 43 601 21.5 601L0 601Z" fill="#ff5bf9"></path><path d="M0 359L21.5 358.2C43 357.3 86 355.7 128.8 363.7C171.7 371.7 214.3 389.3 257.2 390.3C300 391.3 343 375.7 385.8 373C428.7 370.3 471.3 380.7 514.2 393.5C557 406.3 600 421.7 642.8 431C685.7 440.3 728.3 443.7 771.2 438.7C814 433.7 857 420.3 878.5 413.7L900 407L900 601L878.5 601C857 601 814 601 771.2 601C728.3 601 685.7 601 642.8 601C600 601 557 601 514.2 601C471.3 601 428.7 601 385.8 601C343 601 300 601 257.2 601C214.3 601 171.7 601 128.8 601C86 601 43 601 21.5 601L0 601Z" fill="#f257f9"></path><path d="M0 472L21.5 472C43 472 86 472 128.8 466.7C171.7 461.3 214.3 450.7 257.2 450C300 449.3 343 458.7 385.8 464.8C428.7 471 471.3 474 514.2 470C557 466 600 455 642.8 456.5C685.7 458 728.3 472 771.2 471.7C814 471.3 857 456.7 878.5 449.3L900 442L900 601L878.5 601C857 601 814 601 771.2 601C728.3 601 685.7 601 642.8 601C600 601 557 601 514.2 601C471.3 601 428.7 601 385.8 601C343 601 300 601 257.2 601C214.3 601 171.7 601 128.8 601C86 601 43 601 21.5 601L0 601Z" fill="#e454f9"></path><path d="M0 482L21.5 485.7C43 489.3 86 496.7 128.8 502.5C171.7 508.3 214.3 512.7 257.2 514.5C300 516.3 343 515.7 385.8 514.8C428.7 514 471.3 513 514.2 508.8C557 504.7 600 497.3 642.8 491.8C685.7 486.3 728.3 482.7 771.2 485C814 487.3 857 495.7 878.5 499.8L900 504L900 601L878.5 601C857 601 814 601 771.2 601C728.3 601 685.7 601 642.8 601C600 601 557 601 514.2 601C471.3 601 428.7 601 385.8 601C343 601 300 601 257.2 601C214.3 601 171.7 601 128.8 601C86 601 43 601 21.5 601L0 601Z" fill="#d551f9"></path><path d="M0 546L21.5 547.7C43 549.3 86 552.7 128.8 550.2C171.7 547.7 214.3 539.3 257.2 536.7C300 534 343 537 385.8 542.2C428.7 547.3 471.3 554.7 514.2 554.5C557 554.3 600 546.7 642.8 542.5C685.7 538.3 728.3 537.7 771.2 540.8C814 544 857 551 878.5 554.5L900 558L900 601L878.5 601C857 601 814 601 771.2 601C728.3 601 685.7 601 642.8 601C600 601 557 601 514.2 601C471.3 601 428.7 601 385.8 601C343 601 300 601 257.2 601C214.3 601 171.7 601 128.8 601C86 601 43 601 21.5 601L0 601Z" fill="#c64ff8"></path></svg>