<svg id="visual" viewBox="0 0 900 600" width="900" height="600" xmlns="http://www.w3.org/2000/svg" xmlns:xlink="http://www.w3.org/1999/xlink" version="1.1"><rect x="0" y="0" width="900" height="600" fill="#1c0033"></rect><path d="M0 314L21.5 312C43 310 86 306 128.8 321.7C171.7 337.3 214.3 372.7 257.2 385.8C300 399 343 390 385.8 375.8C428.7 361.7 471.3 342.3 514.2 332.7C557 323 600 323 642.8 321.7C685.7 320.3 728.3 317.7 771.2 322.5C814 327.3 857 339.7 878.5 345.8L900 352L900 601L878.5 601C857 601 814 601 771.2 601C728.3 601 685.7 601 642.8 601C600 601 557 601 514.2 601C471.3 601 428.7 601 385.8 601C343 601 300 601 257.2 601C214.3 601 171.7 601 128.8 601C86 601 43 601 21.5 601L0 601Z" fill="#ff5bf9"></path><path d="M0 389L21.5 386C43 383 86 377 128.8 373.3C171.7 369.7 214.3 368.3 257.2 379.3C300 390.3 343 413.7 385.8 419.2C428.7 424.7 471.3 412.3 514.2 404.3C557 396.3 600 392.7 642.8 394C685.7 395.3 728.3 401.7 771.2 396C814 390.3 857 372.7 878.5 363.8L900 355L900 601L878.5 601C857 601 814 601 771.2 601C728.3 601 685.7 601 642.8 601C600 601 557 601 514.2 601C471.3 601 428.7 601 385.8 601C343 601 300 601 257.2 601C214.3 601 171.7 601 128.8 601C86 601 43 601 21.5 601L0 601Z" fill="#f257f9"></path><path d="M0 443L21.5 438.5C43 434 86 425 128.8 428.5C171.7 432 214.3 448 257.2 457.2C300 466.3 343 468.7 385.8 471.3C428.7 474 471.3 477 514.2 472.5C557 468 600 456 642.8 446C685.7 436 728.3 428 771.2 428C814 428 857 436 878.5 440L900 444L900 601L878.5 601C857 601 814 601 771.2 601C728.3 601 685.7 601 642.8 601C600 601 557 601 514.2 601C471.3 601 428.7 601 385.8 601C343 601 300 601 257.2 601C214.3 601 171.7 601 128.8 601C86 601 43 601 21.5 601L0 601Z" fill="#e454f9"></path><path d="M0 505L21.5 507.8C43 510.7 86 516.3 128.8 516.3C171.7 516.3 214.3 510.7 257.2 508.5C300 506.3 343 507.7 385.8 507.8C428.7 508 471.3 507 514.2 503.7C557 500.3 600 494.7 642.8 489.8C685.7 485 728.3 481 771.2 477.8C814 474.7 857 472.3 878.5 471.2L900 470L900 601L878.5 601C857 601 814 601 771.2 601C728.3 601 685.7 601 642.8 601C600 601 557 601 514.2 601C471.3 601 428.7 601 385.8 601C343 601 300 601 257.2 601C214.3 601 171.7 601 128.8 601C86 601 43 601 21.5 601L0 601Z" fill="#d551f9"></path><path d="M0 562L21.5 554.8C43 547.7 86 533.3 128.8 532C171.7 530.7 214.3 542.3 257.2 548.8C300 555.3 343 556.7 385.8 553.2C428.7 549.7 471.3 541.3 514.2 541.3C557 541.3 600 549.7 642.8 547.8C685.7 546 728.3 534 771.2 531.2C814 528.3 857 534.7 878.5 537.8L900 541L900 601L878.5 601C857 601 814 601 771.2 601C728.3 601 685.7 601 642.8 601C600 601 557 601 514.2 601C471.3 601 428.7 601 385.8 601C343 601 300 601 257.2 601C214.3 601 171.7 601 128.8 601C86 601 43 601 21.5 601L0 601Z" fill="#c64ff8"></path></svg>