<svg id="visual" viewBox="0 0 900 600" width="900" height="600" xmlns="http://www.w3.org/2000/svg" xmlns:xlink="http://www.w3.org/1999/xlink" version="1.1"><rect x="0" y="0" width="900" height="600" fill="#1c0033"></rect><path d="M0 381L30 373.8C60 366.7 120 352.3 180 342.2C240 332 300 326 360 350.3C420 374.7 480 429.3 540 439.8C600 450.3 660 416.7 720 389.3C780 362 840 341 870 330.5L900 320L900 601L870 601C840 601 780 601 720 601C660 601 600 601 540 601C480 601 420 601 360 601C300 601 240 601 180 601C120 601 60 601 30 601L0 601Z" fill="#ff51fe" stroke-linecap="round" stroke-linejoin="miter"></path></svg>