<svg id="visual" viewBox="0 0 900 600" width="900" height="600" xmlns="http://www.w3.org/2000/svg" xmlns:xlink="http://www.w3.org/1999/xlink" version="1.1"><rect x="0" y="0" width="900" height="600" fill="#1c0033"></rect><path d="M0 315L30 323.3C60 331.7 120 348.3 180 351.2C240 354 300 343 360 361.2C420 379.3 480 426.7 540 450C600 473.3 660 472.7 720 459.3C780 446 840 420 870 407L900 394L900 601L870 601C840 601 780 601 720 601C660 601 600 601 540 601C480 601 420 601 360 601C300 601 240 601 180 601C120 601 60 601 30 601L0 601Z" fill="#ff51fe" stroke-linecap="round" stroke-linejoin="miter"></path></svg>